<svg width="0" height="0" class="hidden">
  <symbol xmlns="http://www.w3.org/2000/svg" fill="#ece2d8" viewBox="0 0 24 24" id="add">
    <path d="M0 0h24v24H0V0z" fill="none"></path>
    <path d="M19 13h-6v6h-2v-6H5v-2h6V5h2v6h6v2z"></path>
  </symbol>
  <symbol xmlns="http://www.w3.org/2000/svg" fill="#FFFFFF" viewBox="0 0 24 24" id="calendar">
    <path d="M0 0h24v24H0V0z" fill="none"></path>
    <path d="M20 3h-1V1h-2v2H7V1H5v2H4c-1.1 0-2 .9-2 2v16c0 1.1.9 2 2 2h16c1.1 0 2-.9 2-2V5c0-1.1-.9-2-2-2zm0 2v3H4V5h16zM4 21V10h16v11H4z"></path>
    <path d="M4 5.01h16V8H4z" opacity=".3"></path>
  </symbol>
  <symbol xmlns="http://www.w3.org/2000/svg" fill="#ece2d8" viewBox="0 0 24 24" id="expand">
    <path d="M24 24H0V0h24v24z" fill="none" opacity=".87"></path>
    <path d="M16.59 8.59L12 13.17 7.41 8.59 6 10l6 6 6-6-1.41-1.41z"></path>
  </symbol>
  <symbol xmlns="http://www.w3.org/2000/svg" aria-hidden="true" role="img" preserveAspectRatio="xMidYMid meet" viewBox="0 0 448 512" id="facebook">
    <path fill="currentColor" d="M400 32H48A48 48 0 0 0 0 80v352a48 48 0 0 0 48 48h137.25V327.69h-63V256h63v-54.64c0-62.15 37-96.48 93.67-96.48c27.14 0 55.52 4.84 55.52 4.84v61h-31.27c-30.81 0-40.42 19.12-40.42 38.73V256h68.78l-11 71.69h-57.78V480H400a48 48 0 0 0 48-48V80a48 48 0 0 0-48-48z"></path>
  </symbol>
  <symbol xmlns="http://www.w3.org/2000/svg" fill="#ece2d8" viewBox="0 0 24 24" id="close">
    <path d="M0 0h24v24H0V0z" fill="none"></path>
    <path d="M19 6.41L17.59 5 12 10.59 6.41 5 5 6.41 10.59 12 5 17.59 6.41 19 12 13.41 17.59 19 19 17.59 13.41 12 19 6.41z"></path>
  </symbol>
  <symbol xmlns="http://www.w3.org/2000/svg" aria-hidden="true" role="img" preserveAspectRatio="xMidYMid meet" viewBox="0 0 16 16" id="instagram">
    <path fill="currentColor" d="M8 0C5.829 0 5.556.01 4.703.048C3.85.088 3.269.222 2.76.42a3.917 3.917 0 0 0-1.417.923A3.927 3.927 0 0 0 .42 2.76C.222 3.268.087 3.85.048 4.7C.01 5.555 0 5.827 0 8.001c0 2.172.01 2.444.048 3.297c.04.852.174 1.433.372 1.942c.205.526.478.972.923 1.417c.444.445.89.719 1.416.923c.51.198 1.09.333 1.942.372C5.555 15.99 5.827 16 8 16s2.444-.01 3.298-.048c.851-.04 1.434-.174 1.943-.372a3.916 3.916 0 0 0 1.416-.923c.445-.445.718-.891.923-1.417c.197-.509.332-1.09.372-1.942C15.99 10.445 16 10.173 16 8s-.01-2.445-.048-3.299c-.04-.851-.175-1.433-.372-1.941a3.926 3.926 0 0 0-.923-1.417A3.911 3.911 0 0 0 13.24.42c-.51-.198-1.092-.333-1.943-.372C10.443.01 10.172 0 7.998 0h.003zm-.717 1.442h.718c2.136 0 2.389.007 3.232.046c.78.035 1.204.166 1.486.275c.373.145.64.319.92.599c.28.28.453.546.598.92c.11.281.24.705.275 1.485c.039.843.047 1.096.047 3.231s-.008 2.389-.047 3.232c-.035.78-.166 1.203-.275 1.485a2.47 2.47 0 0 1-.599.919c-.28.28-.546.453-.92.598c-.28.11-.704.24-1.485.276c-.843.038-1.096.047-3.232.047s-2.39-.009-3.233-.047c-.78-.036-1.203-.166-1.485-.276a2.478 2.478 0 0 1-.92-.598a2.48 2.48 0 0 1-.6-.92c-.109-.281-.24-.705-.275-1.485c-.038-.843-.046-1.096-.046-3.233c0-2.136.008-2.388.046-3.231c.036-.78.166-1.204.276-1.486c.145-.373.319-.64.599-.92c.28-.28.546-.453.92-.598c.282-.11.705-.24 1.485-.276c.738-.034 1.024-.044 2.515-.045v.002zm4.988 1.328a.96.96 0 1 0 0 1.92a.96.96 0 0 0 0-1.92zm-4.27 1.122a4.109 4.109 0 1 0 0 8.217a4.109 4.109 0 0 0 0-8.217zm0 1.441a2.667 2.667 0 1 1 0 5.334a2.667 2.667 0 0 1 0-5.334z"></path>
  </symbol>
  <symbol xmlns="http://www.w3.org/2000/svg" fill="#FFFFFF" viewBox="0 0 24 24" id="location">
    <path d="M0 0h24v24H0V0z" fill="none"></path>
    <path d="M20.94 11c-.46-4.17-3.77-7.48-7.94-7.94V1h-2v2.06C6.83 3.52 3.52 6.83 3.06 11H1v2h2.06c.46 4.17 3.77 7.48 7.94 7.94V23h2v-2.06c4.17-.46 7.48-3.77 7.94-7.94H23v-2h-2.06zM12 19c-3.87 0-7-3.13-7-7s3.13-7 7-7 7 3.13 7 7-3.13 7-7 7z"></path>
  </symbol>
  <symbol xmlns="http://www.w3.org/2000/svg" fill="#FFFFFF" viewBox="0 0 24 24" id="toggle">
    <path d="M0 0h24v24H0V0z" fill="none"></path>
    <path d="M3 18h18v-2H3v2zm0-5h18v-2H3v2zm0-7v2h18V6H3z"></path>
  </symbol>
  <symbol xmlns="http://www.w3.org/2000/svg" enable-background="new 0 0 24 24" version="1" fill="#FFFFFF" viewBox="0 0 24 24" id="pin">
    <path d="M12,3C9.19,3,6,5.11,6,9.13c0,2.68,2,5.49,6,8.44c4-2.95,6-5.77,6-8.44C18,5.11,14.81,3,12,3z" fill-opacity=".3"></path>
    <path d="M0,0h24v24H0V0z" fill="none"></path>
    <path d="M12,4c1.93,0,5,1.4,5,5.15c0,2.16-1.72,4.67-5,7.32c-3.28-2.65-5-5.17-5-7.32C7,5.4,10.07,4,12,4 M12,2 C8.73,2,5,4.46,5,9.15c0,3.12,2.33,6.41,7,9.85c4.67-3.44,7-6.73,7-9.85C19,4.46,15.27,2,12,2z"></path>
    <path d="M12,7c-1.1,0-2,0.9-2,2s0.9,2,2,2s2-0.9,2-2S13.1,7,12,7z M5,20h14v2H5V20z"></path>
  </symbol>
  <symbol xmlns="http://www.w3.org/2000/svg" fill="#FFFFFF" viewBox="0 0 24 24" id="remove">
    <path d="M0 0h24v24H0V0z" fill="none"></path>
    <path d="M19 13H5v-2h14v2z"></path>
  </symbol>
  <symbol xmlns="http://www.w3.org/2000/svg" fill="#FFFFFF" viewBox="0 0 24 24" id="search">
    <path d="M0 0h24v24H0V0z" fill="none"></path>
    <path d="M15.5 14h-.79l-.28-.27C15.41 12.59 16 11.11 16 9.5 16 5.91 13.09 3 9.5 3S3 5.91 3 9.5 5.91 16 9.5 16c1.61 0 3.09-.59 4.23-1.57l.27.28v.79l5 4.99L20.49 19l-4.99-5zm-6 0C7.01 14 5 11.99 5 9.5S7.01 5 9.5 5 14 7.01 14 9.5 11.99 14 9.5 14z"></path>
  </symbol>
  <symbol xmlns="http://www.w3.org/2000/svg" enable-background="new 0 0 24 24" fill="#FFFFFF" viewBox="0 0 24 24" id="menu">
    <g>
      <rect fill="none" height="24" width="24"></rect>
    </g>
    <g>
      <g></g>
      <g>
        <path d="M21,5c-1.11-0.35-2.33-0.5-3.5-0.5c-1.95,0-4.05,0.4-5.5,1.5c-1.45-1.1-3.55-1.5-5.5-1.5S2.45,4.9,1,6v14.65 c0,0.25,0.25,0.5,0.5,0.5c0.1,0,0.15-0.05,0.25-0.05C3.1,20.45,5.05,20,6.5,20c1.95,0,4.05,0.4,5.5,1.5c1.35-0.85,3.8-1.5,5.5-1.5 c1.65,0,3.35,0.3,4.75,1.05c0.1,0.05,0.15,0.05,0.25,0.05c0.25,0,0.5-0.25,0.5-0.5V6C22.4,5.55,21.75,5.25,21,5z M3,18.5V7 c1.1-0.35,2.3-0.5,3.5-0.5c1.34,0,3.13,0.41,4.5,0.99v11.5C9.63,18.41,7.84,18,6.5,18C5.3,18,4.1,18.15,3,18.5z M21,18.5 c-1.1-0.35-2.3-0.5-3.5-0.5c-1.34,0-3.13,0.41-4.5,0.99V7.49c1.37-0.59,3.16-0.99,4.5-0.99c1.2,0,2.4,0.15,3.5,0.5V18.5z"></path>
        <path d="M11,7.49C9.63,6.91,7.84,6.5,6.5,6.5C5.3,6.5,4.1,6.65,3,7v11.5C4.1,18.15,5.3,18,6.5,18 c1.34,0,3.13,0.41,4.5,0.99V7.49z" opacity=".3"></path>
      </g>
      <g>
        <path d="M17.5,10.5c0.88,0,1.73,0.09,2.5,0.26V9.24C19.21,9.09,18.36,9,17.5,9c-1.28,0-2.46,0.16-3.5,0.47v1.57 C14.99,10.69,16.18,10.5,17.5,10.5z"></path>
        <path d="M17.5,13.16c0.88,0,1.73,0.09,2.5,0.26V11.9c-0.79-0.15-1.64-0.24-2.5-0.24c-1.28,0-2.46,0.16-3.5,0.47v1.57 C14.99,13.36,16.18,13.16,17.5,13.16z"></path>
        <path d="M17.5,15.83c0.88,0,1.73,0.09,2.5,0.26v-1.52c-0.79-0.15-1.64-0.24-2.5-0.24c-1.28,0-2.46,0.16-3.5,0.47v1.57 C14.99,16.02,16.18,15.83,17.5,15.83z"></path>
      </g>
    </g>
  </symbol>
  <symbol xmlns="http://www.w3.org/2000/svg" enable-background="new 0 0 24 24" fill="#FFFFFF" viewBox="0 0 24 24" id="shopping">
    <g>
      <rect fill="none" height="24" width="24"></rect>
      <path d="M18,20H6V8h2v2c0,0.55,0.45,1,1,1s1-0.45,1-1V8h4v2c0,0.55,0.45,1,1,1s1-0.45,1-1V8h2V20z" opacity=".3"></path>
      <path d="M18,6h-2c0-2.21-1.79-4-4-4S8,3.79,8,6H6C4.9,6,4,6.9,4,8v12c0,1.1,0.9,2,2,2h12c1.1,0,2-0.9,2-2V8C20,6.9,19.1,6,18,6z M12,4c1.1,0,2,0.9,2,2h-4C10,4.9,10.9,4,12,4z M18,20H6V8h2v2c0,0.55,0.45,1,1,1s1-0.45,1-1V8h4v2c0,0.55,0.45,1,1,1s1-0.45,1-1V8 h2V20z"></path>
    </g>
  </symbol>
  <symbol xmlns="http://www.w3.org/2000/svg" aria-hidden="true" role="img" preserveAspectRatio="xMidYMid meet" viewBox="0 0 448 512" id="twitter">
    <path fill="currentColor" d="M400 32H48C21.5 32 0 53.5 0 80v352c0 26.5 21.5 48 48 48h352c26.5 0 48-21.5 48-48V80c0-26.5-21.5-48-48-48zm-48.9 158.8c.2 2.8.2 5.7.2 8.5c0 86.7-66 186.6-186.6 186.6c-37.2 0-71.7-10.8-100.7-29.4c5.3.6 10.4.8 15.8.8c30.7 0 58.9-10.4 81.4-28c-28.8-.6-53-19.5-61.3-45.5c10.1 1.5 19.2 1.5 29.6-1.2c-30-6.1-52.5-32.5-52.5-64.4v-.8c8.7 4.9 18.9 7.9 29.6 8.3a65.447 65.447 0 0 1-29.2-54.6c0-12.2 3.2-23.4 8.9-33.1c32.3 39.8 80.8 65.8 135.2 68.6c-9.3-44.5 24-80.6 64-80.6c18.9 0 35.9 7.9 47.9 20.7c14.8-2.8 29-8.3 41.6-15.8c-4.9 15.2-15.2 28-28.8 36.1c13.2-1.4 26-5.1 37.8-10.2c-8.9 13.1-20.1 24.7-32.9 34z"></path>
  </symbol>
</svg>